<?xml version="1.0" encoding="UTF-8"?>
<svg xmlns="http://www.w3.org/2000/svg" xmlns:xlink="http://www.w3.org/1999/xlink" width="500px" height="500px" viewBox="0 0 500 500" version="1.1">
<g id="surface1">
<path style=" stroke:none;fill-rule:nonzero;fill:rgb(0%,0%,0%);fill-opacity:1;" d="M 164.539062 57.164062 C 189.03125 60.171875 211.671875 70.402344 230.777344 86.574219 L 230.96875 86.734375 L 231.273438 86.71875 C 249.878906 85.5625 268.402344 88.261719 285.765625 94.832031 L 285.96875 94.90625 L 286.140625 94.953125 C 287.09375 95.21875 288.039062 95.554688 288.96875 95.960938 L 289.28125 96.101562 C 289.316406 96.117188 289.351562 96.132812 289.382812 96.148438 L 289.476562 96.195312 C 289.695312 96.296875 289.992188 96.429688 291.273438 97.015625 C 292.109375 97.398438 292.644531 97.644531 293.15625 97.878906 L 293.328125 97.957031 C 294.179688 98.351562 295.058594 98.75 297.25 99.757812 C 300.601562 101.289062 302.742188 102.273438 304.796875 103.210938 L 305.136719 103.367188 L 305.648438 103.601562 L 305.992188 103.757812 C 308.796875 105.046875 311.835938 106.4375 317.929688 109.230469 L 318.238281 109.371094 L 318.722656 109.441406 C 323.460938 110.128906 327.859375 111.117188 331.621094 112.386719 L 332.070312 112.539062 C 335.40625 113.699219 338.367188 115.105469 341.085938 117.054688 C 343.070312 118.480469 344.875 120.15625 346.453125 122.242188 L 346.515625 122.328125 L 347.4375 122.75 C 358.921875 128.015625 367.113281 131.765625 374.96875 135.367188 L 375.75 135.726562 L 376.535156 136.085938 L 378.679688 137.066406 C 393.453125 143.835938 408.683594 150.816406 444.273438 167.125 L 445.859375 167.851562 L 446.1875 167.988281 C 447.464844 168.53125 448.726562 169.101562 449.96875 169.710938 L 450.71875 170.078125 L 450.839844 170.140625 L 450.992188 170.21875 L 451.046875 170.25 L 451.484375 170.472656 L 451.585938 170.523438 C 451.875 170.671875 452.160156 170.820312 452.445312 170.976562 C 479.359375 185.300781 495.550781 213.625 499.207031 248.527344 C 502.628906 281.1875 494.929688 318.011719 477.300781 352.09375 L 477.25 352.191406 L 476.25 354.09375 L 476.199219 354.191406 C 458.414062 387.683594 432.914062 414.773438 404.484375 430.785156 C 375.195312 447.28125 344.210938 451.203125 317.679688 440.046875 L 317.402344 439.925781 L 317.183594 439.851562 C 316.222656 439.523438 315.273438 439.121094 314.34375 438.640625 L 314.03125 438.476562 L 311.996094 437.382812 L 311.382812 437.0625 L 311.328125 437.035156 L 311.15625 436.945312 C 310.625 436.664062 310.097656 436.375 309.578125 436.078125 L 202.117188 378.273438 L 201.582031 378.578125 C 177.574219 392.191406 150.875 398.0625 124.023438 394.976562 L 123.070312 394.863281 C 43.515625 385.09375 -9.78125 301 1.570312 208.546875 C 12.921875 116.101562 84.976562 47.394531 164.539062 57.164062 Z M 305.570312 263.484375 C 271.941406 326.726562 278.726562 396.09375 320.71875 418.421875 C 322.527344 419.382812 324.371094 420.242188 326.25 421 L 325.929688 420.8125 C 283.78125 395.847656 277.570312 327.929688 309.78125 267.351562 C 342.652344 205.535156 404.21875 172.609375 448.726562 196.273438 C 453.097656 198.597656 457.109375 201.363281 460.753906 204.519531 C 455.6875 198.304688 449.59375 193.183594 442.488281 189.40625 C 400.496094 167.078125 339.195312 200.242188 305.570312 263.484375 Z M 318.980469 272.242188 C 288.496094 329.574219 294.972656 392.632812 333.445312 413.089844 C 355.34375 424.734375 382.890625 420.0625 408.179688 403.308594 C 427.03125 389.296875 444.460938 369.128906 457.640625 344.34375 C 466.714844 327.273438 472.847656 309.757812 476.140625 292.839844 C 481.707031 254.015625 470.398438 219.59375 443.835938 205.472656 C 405.367188 185.015625 349.464844 214.910156 318.980469 272.242188 Z M 238.734375 107.296875 L 236.988281 107.320312 C 236.984375 107.320312 236.976562 107.320312 236.972656 107.320312 L 236.988281 107.320312 C 196.636719 108.261719 156.46875 130.703125 132.953125 169.882812 C 97.625 228.757812 113.289062 303.140625 167.941406 336.023438 C 169.386719 336.890625 170.84375 337.722656 172.320312 338.515625 C 172.308594 338.53125 172.300781 338.550781 172.289062 338.570312 L 287.949219 400.792969 C 266.742188 365.578125 269.148438 309.789062 296.371094 258.59375 C 322.734375 209.007812 365.691406 176.3125 405.671875 172.390625 C 379.132812 160.257812 356.8125 150.054688 338.71875 141.78125 C 338.203125 142.601562 337.589844 143.351562 336.902344 144.03125 C 335.644531 145.269531 334.226562 146.179688 332.65625 146.898438 C 330.5625 147.867188 328.125 148.515625 325.3125 148.960938 C 320.472656 149.734375 314.34375 149.90625 307.933594 149.453125 C 301.523438 149.007812 295.476562 147.984375 290.792969 146.546875 C 288.070312 145.710938 285.742188 144.730469 283.804688 143.484375 C 282.351562 142.550781 281.074219 141.453125 280 140.050781 C 278.292969 137.820312 277.304688 135.054688 277.519531 131.976562 C 277.734375 128.898438 279.097656 126.296875 281.101562 124.324219 C 282.359375 123.085938 283.773438 122.175781 285.34375 121.453125 C 286.898438 120.738281 288.644531 120.195312 290.59375 119.78125 L 290.25 119.625 C 290.160156 119.582031 290.070312 119.539062 289.984375 119.5 C 286.226562 117.546875 282.390625 115.835938 278.503906 114.359375 C 278.476562 114.351562 278.453125 114.339844 278.425781 114.328125 L 278.503906 114.359375 C 277.953125 114.148438 277.40625 113.945312 276.851562 113.75 L 278.425781 114.328125 C 277.863281 114.117188 277.300781 113.90625 276.734375 113.703125 L 276.851562 113.75 C 276.277344 113.539062 275.703125 113.335938 275.125 113.140625 L 276.734375 113.703125 C 276.179688 113.507812 275.625 113.3125 275.070312 113.121094 L 275.125 113.140625 C 274 112.757812 272.871094 112.390625 271.738281 112.046875 C 271.726562 112.039062 271.710938 112.039062 271.695312 112.03125 L 271.738281 112.046875 C 271.171875 111.875 270.609375 111.703125 270.042969 111.542969 L 271.695312 112.03125 C 271.128906 111.859375 270.558594 111.691406 269.988281 111.527344 L 270.042969 111.542969 C 269.476562 111.378906 268.90625 111.21875 268.335938 111.066406 L 269.988281 111.527344 C 269.421875 111.367188 268.851562 111.207031 268.285156 111.054688 L 268.335938 111.066406 C 267.1875 110.757812 266.039062 110.46875 264.890625 110.195312 C 264.882812 110.195312 264.875 110.195312 264.867188 110.191406 L 264.890625 110.195312 C 264.3125 110.0625 263.742188 109.929688 263.164062 109.804688 L 264.867188 110.191406 C 264.292969 110.058594 263.71875 109.929688 263.148438 109.804688 L 263.164062 109.804688 C 262.015625 109.554688 260.867188 109.328125 259.710938 109.113281 C 259.703125 109.109375 259.6875 109.109375 259.679688 109.109375 C 259.121094 109.007812 258.5625 108.90625 258 108.8125 L 259.679688 109.109375 C 259.09375 109 258.503906 108.898438 257.914062 108.796875 C 256.78125 108.609375 255.640625 108.4375 254.5 108.28125 C 254.484375 108.28125 254.476562 108.28125 254.46875 108.28125 L 254.5 108.28125 C 249.269531 107.578125 244 107.253906 238.734375 107.296875 Z M 22.25 211.085938 C 12.203125 292.921875 58.476562 365.941406 125.609375 374.1875 C 148.640625 377.011719 171.132812 371.851562 191.152344 360.542969 L 167.359375 347.742188 C 167.023438 347.5625 166.707031 347.371094 166.402344 347.164062 L 166.34375 347.117188 L 165.78125 346.808594 C 164.976562 346.359375 164.175781 345.898438 163.375 345.425781 L 162.570312 344.945312 C 102.835938 309.011719 85.816406 228.183594 124.023438 164.519531 C 144.882812 129.761719 178.097656 107.050781 213.742188 99.570312 C 198.765625 87.886719 181.238281 80.203125 162 77.84375 C 94.863281 69.601562 32.296875 129.257812 22.25 211.085938 Z M 287.910156 132.703125 C 287.722656 135.402344 297.011719 138.25 308.660156 139.0625 C 317.945312 139.710938 325.929688 138.875 328.882812 137.140625 C 328.90625 137.121094 328.9375 137.105469 328.964844 137.085938 L 328.882812 137.140625 C 328.921875 137.117188 328.960938 137.089844 329 137.066406 L 328.964844 137.085938 C 329 137.0625 329.039062 137.039062 329.074219 137.015625 L 329 137.066406 C 329.09375 137.007812 329.179688 136.945312 329.265625 136.886719 C 329.28125 136.875 329.296875 136.863281 329.3125 136.851562 L 329.265625 136.886719 C 329.296875 136.863281 329.328125 136.835938 329.359375 136.8125 L 329.3125 136.851562 C 329.34375 136.828125 329.375 136.800781 329.40625 136.773438 L 329.359375 136.8125 C 329.390625 136.789062 329.421875 136.765625 329.445312 136.742188 L 329.40625 136.773438 C 329.4375 136.75 329.46875 136.726562 329.496094 136.699219 L 329.445312 136.742188 C 329.476562 136.714844 329.507812 136.6875 329.539062 136.65625 L 329.496094 136.699219 C 329.523438 136.675781 329.546875 136.652344 329.574219 136.625 L 329.539062 136.65625 C 329.566406 136.632812 329.59375 136.609375 329.617188 136.585938 L 329.574219 136.625 C 329.601562 136.601562 329.632812 136.570312 329.65625 136.542969 L 329.617188 136.585938 C 329.640625 136.5625 329.664062 136.539062 329.6875 136.515625 L 329.65625 136.542969 C 329.714844 136.484375 329.765625 136.421875 329.8125 136.355469 L 329.871094 136.277344 C 329.878906 136.261719 329.890625 136.25 329.898438 136.234375 C 329.90625 136.21875 329.914062 136.210938 329.921875 136.195312 L 329.898438 136.234375 C 329.914062 136.207031 329.929688 136.179688 329.945312 136.152344 L 329.921875 136.195312 C 329.9375 136.171875 329.949219 136.140625 329.960938 136.117188 L 329.945312 136.152344 C 329.960938 136.125 329.972656 136.097656 329.984375 136.070312 L 329.960938 136.117188 C 329.976562 136.085938 329.992188 136.058594 330 136.03125 L 329.984375 136.070312 C 329.996094 136.046875 330.007812 136.023438 330.015625 135.996094 L 330 136.03125 C 330.015625 136 330.023438 135.96875 330.035156 135.9375 L 330.015625 135.996094 C 330.023438 135.96875 330.035156 135.9375 330.046875 135.910156 L 330.035156 135.9375 C 330.046875 135.914062 330.054688 135.886719 330.058594 135.859375 L 330.046875 135.910156 C 330.054688 135.882812 330.0625 135.851562 330.070312 135.820312 L 330.058594 135.859375 C 330.066406 135.828125 330.074219 135.796875 330.078125 135.765625 L 330.070312 135.820312 C 330.074219 135.796875 330.078125 135.765625 330.082031 135.738281 L 330.078125 135.765625 C 330.085938 135.726562 330.089844 135.6875 330.09375 135.652344 L 330.09375 135.570312 C 330.09375 135.492188 330.085938 135.414062 330.070312 135.335938 C 330.070312 135.328125 330.070312 135.320312 330.066406 135.3125 L 330.070312 135.335938 C 330.066406 135.3125 330.0625 135.285156 330.054688 135.257812 L 330.066406 135.3125 C 330.0625 135.28125 330.054688 135.25 330.042969 135.222656 L 330.054688 135.257812 C 330.046875 135.234375 330.039062 135.203125 330.03125 135.179688 L 330.042969 135.222656 C 330.039062 135.195312 330.027344 135.171875 330.019531 135.148438 L 330.03125 135.179688 C 330.023438 135.15625 330.015625 135.132812 330.003906 135.109375 L 330.019531 135.148438 C 330.007812 135.117188 330 135.089844 329.984375 135.0625 L 330.003906 135.109375 C 329.992188 135.082031 329.984375 135.054688 329.972656 135.03125 L 329.984375 135.0625 C 329.976562 135.039062 329.964844 135.015625 329.953125 134.992188 L 329.929688 134.945312 C 328.46875 132.742188 321.4375 130.59375 312.488281 129.65625 L 312.238281 129.539062 C 311.292969 129.445312 310.328125 129.359375 309.34375 129.289062 C 297.695312 128.476562 288.101562 130.003906 287.910156 132.703125 Z M 287.910156 132.703125 "/>
</g>
</svg>
