<?xml version="1.0" encoding="UTF-8"?>
<svg xmlns="http://www.w3.org/2000/svg" xmlns:xlink="http://www.w3.org/1999/xlink" width="75px" height="75px" viewBox="0 0 75 75" version="1.1">
<g id="surface1">
<path style=" stroke:none;fill-rule:nonzero;fill:rgb(0%,0%,0%);fill-opacity:1;" d="M 24.679688 8.574219 C 28.355469 9.027344 31.75 10.558594 34.617188 12.984375 L 34.644531 13.011719 L 34.691406 13.007812 C 37.480469 12.835938 40.261719 13.238281 42.863281 14.226562 L 42.894531 14.234375 L 42.921875 14.242188 C 43.0625 14.28125 43.207031 14.332031 43.34375 14.394531 L 43.390625 14.414062 C 43.398438 14.417969 43.402344 14.421875 43.40625 14.421875 L 43.421875 14.429688 C 43.453125 14.445312 43.5 14.464844 43.691406 14.550781 C 43.816406 14.609375 43.898438 14.648438 43.972656 14.683594 L 44 14.695312 C 44.128906 14.753906 44.257812 14.8125 44.585938 14.964844 C 45.089844 15.195312 45.410156 15.339844 45.71875 15.480469 L 45.769531 15.503906 L 45.847656 15.539062 L 45.898438 15.5625 C 46.320312 15.757812 46.777344 15.964844 47.6875 16.382812 L 47.734375 16.40625 L 47.808594 16.417969 C 48.519531 16.519531 49.179688 16.667969 49.742188 16.859375 L 49.808594 16.882812 C 50.3125 17.054688 50.753906 17.265625 51.164062 17.558594 C 51.460938 17.773438 51.730469 18.023438 51.96875 18.335938 L 51.976562 18.347656 L 52.117188 18.414062 C 53.839844 19.203125 55.066406 19.765625 56.246094 20.304688 L 56.480469 20.414062 L 56.800781 20.558594 C 59.019531 21.574219 61.300781 22.621094 66.640625 25.070312 L 66.878906 25.175781 L 66.929688 25.199219 C 67.121094 25.28125 67.308594 25.367188 67.496094 25.457031 L 67.609375 25.511719 L 67.648438 25.53125 L 67.65625 25.539062 L 67.722656 25.570312 L 67.738281 25.578125 C 67.78125 25.601562 67.824219 25.625 67.867188 25.644531 C 71.902344 27.796875 74.332031 32.042969 74.882812 37.277344 C 75.394531 42.179688 74.238281 47.703125 71.59375 52.8125 L 71.585938 52.828125 L 71.4375 53.113281 L 71.429688 53.128906 C 68.761719 58.152344 64.9375 62.214844 60.671875 64.617188 C 56.277344 67.09375 51.632812 67.679688 47.652344 66.007812 L 47.609375 65.988281 L 47.578125 65.976562 C 47.433594 65.929688 47.289062 65.867188 47.152344 65.796875 L 47.105469 65.769531 L 46.800781 65.605469 L 46.699219 65.554688 L 46.671875 65.542969 C 46.59375 65.5 46.515625 65.457031 46.4375 65.410156 L 30.316406 56.742188 L 30.238281 56.785156 C 26.636719 58.828125 22.632812 59.710938 18.601562 59.246094 L 18.460938 59.230469 C 6.527344 57.765625 -1.46875 45.148438 0.234375 31.28125 C 1.9375 17.414062 12.746094 7.109375 24.679688 8.574219 Z M 45.835938 39.523438 C 40.792969 49.007812 41.808594 59.414062 48.109375 62.761719 C 48.378906 62.90625 48.65625 63.035156 48.9375 63.148438 L 48.890625 63.121094 C 42.566406 59.378906 41.636719 49.191406 46.46875 40.101562 C 51.398438 30.832031 60.632812 25.890625 67.308594 29.441406 C 67.964844 29.789062 68.566406 30.203125 69.113281 30.679688 C 68.351562 29.746094 67.4375 28.976562 66.375 28.410156 C 60.074219 25.0625 50.878906 30.035156 45.835938 39.523438 Z M 47.847656 40.835938 C 43.273438 49.4375 44.246094 58.894531 50.015625 61.964844 C 53.300781 63.710938 57.433594 63.007812 61.226562 60.496094 C 64.054688 58.394531 66.667969 55.371094 68.644531 51.652344 C 70.007812 49.089844 70.925781 46.464844 71.421875 43.925781 C 72.257812 38.101562 70.558594 32.9375 66.574219 30.820312 C 60.804688 27.753906 52.417969 32.238281 47.847656 40.835938 Z M 35.808594 16.09375 L 35.546875 16.097656 C 29.496094 16.238281 23.46875 19.605469 19.941406 25.480469 C 14.644531 34.3125 16.992188 45.472656 25.191406 50.402344 C 25.40625 50.535156 25.625 50.660156 25.847656 50.777344 C 25.847656 50.78125 25.84375 50.78125 25.84375 50.785156 L 43.191406 60.117188 C 40.011719 54.835938 40.371094 46.46875 44.457031 38.789062 C 48.410156 31.351562 54.855469 26.445312 60.851562 25.859375 C 56.871094 24.039062 53.523438 22.507812 50.808594 21.265625 C 50.730469 21.390625 50.636719 21.503906 50.535156 21.605469 C 50.347656 21.789062 50.132812 21.925781 49.898438 22.035156 C 49.585938 22.179688 49.21875 22.277344 48.796875 22.34375 C 48.070312 22.460938 47.152344 22.484375 46.191406 22.417969 C 45.226562 22.351562 44.320312 22.199219 43.617188 21.980469 C 43.210938 21.855469 42.863281 21.710938 42.570312 21.523438 C 42.351562 21.382812 42.160156 21.21875 42 21.007812 C 41.742188 20.671875 41.597656 20.257812 41.628906 19.796875 C 41.660156 19.335938 41.863281 18.945312 42.164062 18.648438 C 42.355469 18.460938 42.566406 18.328125 42.800781 18.21875 C 43.035156 18.109375 43.296875 18.03125 43.589844 17.96875 L 43.539062 17.945312 C 43.523438 17.9375 43.511719 17.929688 43.496094 17.925781 C 42.933594 17.632812 42.359375 17.375 41.777344 17.152344 C 41.773438 17.152344 41.769531 17.152344 41.765625 17.148438 L 41.777344 17.152344 C 41.691406 17.121094 41.609375 17.09375 41.527344 17.0625 L 41.765625 17.148438 C 41.679688 17.117188 41.59375 17.085938 41.511719 17.054688 L 41.527344 17.0625 C 41.441406 17.03125 41.355469 17 41.269531 16.972656 L 41.511719 17.054688 C 41.425781 17.027344 41.34375 16.996094 41.261719 16.96875 L 41.269531 16.972656 C 41.101562 16.914062 40.929688 16.859375 40.761719 16.808594 C 40.757812 16.804688 40.757812 16.804688 40.753906 16.804688 L 40.761719 16.808594 C 40.675781 16.78125 40.589844 16.753906 40.507812 16.730469 L 40.753906 16.804688 C 40.667969 16.777344 40.582031 16.753906 40.5 16.730469 L 40.507812 16.730469 C 40.421875 16.707031 40.335938 16.683594 40.25 16.660156 L 40.5 16.730469 C 40.414062 16.703125 40.328125 16.679688 40.242188 16.65625 L 40.25 16.660156 C 40.078125 16.613281 39.90625 16.570312 39.734375 16.53125 C 39.730469 16.53125 39.730469 16.527344 39.730469 16.527344 L 39.734375 16.53125 C 39.648438 16.507812 39.5625 16.488281 39.472656 16.472656 L 39.730469 16.527344 C 39.644531 16.507812 39.558594 16.488281 39.472656 16.46875 L 39.472656 16.472656 C 39.300781 16.433594 39.128906 16.398438 38.957031 16.367188 C 38.957031 16.367188 38.953125 16.367188 38.953125 16.367188 C 38.867188 16.351562 38.785156 16.335938 38.699219 16.320312 L 38.953125 16.367188 C 38.863281 16.351562 38.777344 16.335938 38.6875 16.320312 C 38.515625 16.292969 38.347656 16.265625 38.175781 16.242188 C 38.171875 16.242188 38.171875 16.242188 38.171875 16.242188 L 38.175781 16.242188 C 37.390625 16.136719 36.601562 16.089844 35.808594 16.09375 Z M 3.335938 31.664062 C 1.832031 43.9375 8.773438 54.890625 18.839844 56.128906 C 22.296875 56.550781 25.671875 55.777344 28.671875 54.082031 L 25.105469 52.160156 C 25.054688 52.132812 25.007812 52.105469 24.960938 52.074219 L 24.953125 52.066406 L 24.867188 52.019531 C 24.746094 51.953125 24.625 51.886719 24.507812 51.8125 L 24.386719 51.742188 C 15.425781 46.351562 12.871094 34.226562 18.601562 24.679688 C 21.734375 19.464844 26.714844 16.058594 32.0625 14.933594 C 29.816406 13.183594 27.1875 12.03125 24.300781 11.675781 C 14.230469 10.441406 4.84375 19.386719 3.335938 31.664062 Z M 43.1875 19.90625 C 43.160156 20.308594 44.550781 20.738281 46.300781 20.859375 C 47.691406 20.957031 48.890625 20.832031 49.332031 20.570312 C 49.335938 20.566406 49.339844 20.566406 49.34375 20.5625 L 49.332031 20.570312 C 49.339844 20.566406 49.34375 20.5625 49.351562 20.558594 L 49.34375 20.5625 C 49.351562 20.558594 49.355469 20.554688 49.359375 20.550781 L 49.351562 20.558594 C 49.363281 20.550781 49.378906 20.542969 49.390625 20.53125 C 49.390625 20.53125 49.394531 20.53125 49.398438 20.527344 L 49.390625 20.53125 C 49.394531 20.53125 49.398438 20.527344 49.402344 20.523438 L 49.398438 20.527344 C 49.402344 20.523438 49.40625 20.519531 49.410156 20.515625 L 49.402344 20.523438 C 49.410156 20.519531 49.414062 20.515625 49.417969 20.511719 L 49.410156 20.515625 C 49.414062 20.511719 49.421875 20.507812 49.425781 20.503906 L 49.417969 20.511719 C 49.421875 20.507812 49.425781 20.503906 49.429688 20.5 L 49.425781 20.503906 C 49.429688 20.5 49.433594 20.496094 49.4375 20.492188 L 49.429688 20.5 C 49.433594 20.496094 49.4375 20.492188 49.441406 20.488281 L 49.4375 20.492188 C 49.441406 20.488281 49.445312 20.484375 49.449219 20.480469 L 49.441406 20.488281 C 49.445312 20.484375 49.449219 20.480469 49.453125 20.476562 L 49.449219 20.480469 C 49.457031 20.472656 49.464844 20.464844 49.472656 20.453125 L 49.480469 20.441406 C 49.480469 20.4375 49.484375 20.4375 49.484375 20.433594 C 49.484375 20.433594 49.488281 20.429688 49.488281 20.429688 L 49.484375 20.433594 C 49.488281 20.429688 49.488281 20.425781 49.492188 20.421875 L 49.488281 20.429688 C 49.492188 20.425781 49.492188 20.421875 49.496094 20.417969 L 49.492188 20.421875 C 49.492188 20.417969 49.496094 20.414062 49.496094 20.410156 L 49.496094 20.417969 C 49.496094 20.414062 49.5 20.410156 49.5 20.40625 L 49.496094 20.410156 C 49.5 20.40625 49.5 20.402344 49.503906 20.398438 L 49.5 20.40625 C 49.503906 20.398438 49.503906 20.394531 49.503906 20.390625 L 49.503906 20.398438 C 49.503906 20.394531 49.503906 20.390625 49.507812 20.386719 L 49.503906 20.390625 C 49.507812 20.386719 49.507812 20.382812 49.507812 20.378906 L 49.507812 20.386719 C 49.507812 20.382812 49.507812 20.378906 49.511719 20.375 L 49.507812 20.378906 C 49.511719 20.375 49.511719 20.371094 49.511719 20.363281 L 49.511719 20.375 C 49.511719 20.371094 49.511719 20.363281 49.511719 20.359375 L 49.511719 20.363281 C 49.511719 20.359375 49.511719 20.351562 49.515625 20.347656 L 49.515625 20.335938 C 49.515625 20.324219 49.511719 20.3125 49.511719 20.300781 C 49.511719 20.300781 49.511719 20.296875 49.511719 20.296875 L 49.511719 20.300781 C 49.511719 20.296875 49.507812 20.292969 49.507812 20.289062 L 49.511719 20.296875 C 49.507812 20.292969 49.507812 20.289062 49.507812 20.285156 L 49.507812 20.289062 C 49.507812 20.285156 49.507812 20.28125 49.503906 20.277344 L 49.507812 20.285156 C 49.503906 20.28125 49.503906 20.277344 49.503906 20.273438 L 49.503906 20.277344 C 49.503906 20.273438 49.503906 20.269531 49.5 20.265625 L 49.503906 20.273438 C 49.5 20.265625 49.5 20.261719 49.496094 20.257812 L 49.5 20.265625 C 49.5 20.261719 49.496094 20.257812 49.496094 20.253906 L 49.496094 20.257812 C 49.496094 20.253906 49.496094 20.253906 49.492188 20.25 L 49.488281 20.242188 C 49.269531 19.910156 48.214844 19.589844 46.875 19.449219 L 46.835938 19.429688 C 46.695312 19.417969 46.550781 19.402344 46.402344 19.394531 C 44.652344 19.269531 43.214844 19.5 43.1875 19.90625 Z M 43.1875 19.90625 "/>
</g>
</svg>
