<?xml version="1.0" encoding="UTF-8"?>
<svg xmlns="http://www.w3.org/2000/svg" xmlns:xlink="http://www.w3.org/1999/xlink" width="1000px" height="1000px" viewBox="0 0 1000 1000" version="1.1">
<g id="surface1">
<path style=" stroke:none;fill-rule:nonzero;fill:rgb(0%,0%,0%);fill-opacity:1;" d="M 329.074219 114.328125 C 378.066406 120.34375 423.339844 140.804688 461.554688 173.148438 L 461.933594 173.472656 L 462.546875 173.433594 C 499.757812 171.121094 536.804688 176.523438 571.535156 189.664062 L 571.933594 189.816406 L 572.28125 189.910156 C 574.1875 190.441406 576.078125 191.109375 577.9375 191.925781 L 578.558594 192.203125 C 578.632812 192.238281 578.699219 192.269531 578.765625 192.300781 L 578.957031 192.386719 C 579.394531 192.589844 579.980469 192.855469 582.542969 194.03125 C 584.21875 194.796875 585.289062 195.289062 586.316406 195.757812 L 586.65625 195.914062 C 588.363281 196.699219 590.117188 197.5 594.5 199.511719 C 601.199219 202.578125 605.484375 204.542969 609.589844 206.425781 L 610.273438 206.738281 L 611.296875 207.207031 L 611.984375 207.519531 C 617.59375 210.089844 623.675781 212.878906 635.855469 218.460938 L 636.476562 218.742188 L 637.445312 218.882812 C 646.925781 220.257812 655.71875 222.238281 663.242188 224.773438 L 664.136719 225.078125 C 670.808594 227.398438 676.738281 230.210938 682.175781 234.113281 C 686.140625 236.960938 689.75 240.308594 692.90625 244.488281 L 693.03125 244.660156 L 694.875 245.503906 C 717.84375 256.027344 734.226562 263.535156 749.933594 270.734375 L 751.503906 271.453125 L 753.070312 272.167969 L 757.355469 274.132812 C 786.90625 287.675781 817.367188 301.632812 888.550781 334.25 L 891.71875 335.699219 L 892.378906 335.976562 C 894.929688 337.058594 897.449219 338.207031 899.941406 339.421875 L 901.433594 340.160156 L 901.679688 340.285156 L 901.984375 340.441406 L 902.09375 340.496094 L 902.972656 340.945312 L 903.167969 341.042969 C 903.746094 341.34375 904.320312 341.644531 904.894531 341.949219 C 958.714844 370.601562 991.101562 427.246094 998.414062 497.054688 C 1005.257812 562.378906 989.863281 636.023438 954.601562 704.183594 L 954.496094 704.382812 L 952.503906 708.183594 L 952.398438 708.382812 C 916.828125 775.367188 865.832031 829.542969 808.96875 861.570312 C 750.386719 894.5625 688.421875 902.402344 635.363281 880.089844 L 634.804688 879.851562 L 634.367188 879.707031 C 632.445312 879.046875 630.546875 878.242188 628.6875 877.28125 L 628.066406 876.953125 L 623.992188 874.761719 L 622.769531 874.128906 L 622.65625 874.070312 L 622.308594 873.890625 C 621.25 873.324219 620.195312 872.75 619.152344 872.160156 L 404.238281 756.546875 L 403.164062 757.160156 C 355.148438 784.382812 301.746094 796.125 248.042969 789.953125 L 246.144531 789.726562 C 87.03125 770.1875 -19.5625 601.996094 3.140625 417.097656 C 25.84375 232.199219 169.957031 94.789062 329.074219 114.328125 Z M 611.136719 526.972656 C 543.882812 653.453125 557.449219 792.1875 641.4375 836.847656 C 645.054688 838.769531 648.742188 840.484375 652.496094 842 L 651.859375 841.625 C 567.558594 791.695312 555.144531 655.863281 619.566406 534.703125 C 685.304688 411.070312 808.441406 345.21875 897.457031 392.550781 C 906.195312 397.195312 914.214844 402.726562 921.507812 409.039062 C 911.378906 396.613281 899.1875 386.367188 884.976562 378.8125 C 800.992188 334.15625 678.386719 400.488281 611.136719 526.972656 Z M 637.960938 544.484375 C 576.992188 659.148438 589.945312 785.269531 666.890625 826.179688 C 710.6875 849.46875 765.777344 840.128906 816.359375 806.617188 C 854.0625 778.589844 888.921875 738.257812 915.277344 688.6875 C 933.429688 654.546875 945.695312 619.515625 952.277344 585.679688 C 963.414062 508.03125 940.792969 439.1875 887.675781 410.945312 C 810.730469 370.03125 698.929688 429.820312 637.960938 544.484375 Z M 477.46875 214.589844 L 473.976562 214.644531 C 473.964844 214.644531 473.953125 214.644531 473.945312 214.644531 L 473.976562 214.644531 C 393.273438 216.523438 312.933594 261.402344 265.910156 339.761719 C 195.246094 457.511719 226.574219 606.28125 335.882812 672.042969 C 338.773438 673.78125 341.691406 675.445312 344.636719 677.027344 C 344.617188 677.066406 344.601562 677.101562 344.582031 677.136719 L 575.898438 801.585938 C 533.484375 731.152344 538.300781 619.578125 592.742188 517.191406 C 645.472656 418.019531 731.382812 352.621094 811.34375 344.777344 C 758.261719 320.515625 713.628906 300.113281 677.433594 283.566406 C 676.402344 285.207031 675.179688 286.707031 673.804688 288.058594 C 671.289062 290.539062 668.457031 292.355469 665.3125 293.800781 C 661.125 295.730469 656.25 297.03125 650.621094 297.925781 C 640.945312 299.464844 628.691406 299.808594 615.867188 298.910156 C 603.042969 298.015625 590.953125 295.96875 581.585938 293.097656 C 576.136719 291.425781 571.488281 289.460938 567.609375 286.96875 C 564.703125 285.101562 562.148438 282.90625 560 280.101562 C 556.585938 275.640625 554.609375 270.113281 555.039062 263.953125 C 555.46875 257.792969 558.195312 252.589844 562.203125 248.648438 C 564.71875 246.171875 567.550781 244.351562 570.691406 242.90625 C 573.800781 241.476562 577.289062 240.390625 581.183594 239.558594 L 580.5 239.25 C 580.320312 239.164062 580.140625 239.082031 579.964844 239.003906 C 572.449219 235.09375 564.785156 231.671875 557.007812 228.71875 C 556.957031 228.699219 556.90625 228.679688 556.851562 228.660156 L 557.007812 228.71875 C 555.910156 228.300781 554.808594 227.894531 553.703125 227.496094 L 556.851562 228.660156 C 555.726562 228.234375 554.601562 227.816406 553.472656 227.410156 L 553.703125 227.496094 C 552.554688 227.082031 551.40625 226.675781 550.25 226.28125 L 553.472656 227.410156 C 552.363281 227.011719 551.25 226.621094 550.136719 226.242188 L 550.25 226.28125 C 548 225.511719 545.742188 224.78125 543.476562 224.089844 C 543.449219 224.082031 543.421875 224.074219 543.390625 224.066406 L 543.476562 224.089844 C 542.347656 223.746094 541.21875 223.410156 540.085938 223.085938 L 543.390625 224.066406 C 542.257812 223.71875 541.117188 223.382812 539.976562 223.054688 L 540.085938 223.085938 C 538.949219 222.757812 537.808594 222.441406 536.667969 222.132812 L 539.976562 223.054688 C 538.84375 222.730469 537.707031 222.414062 536.570312 222.105469 L 536.667969 222.132812 C 534.378906 221.515625 532.082031 220.9375 529.78125 220.394531 C 529.765625 220.390625 529.75 220.386719 529.734375 220.382812 L 529.78125 220.394531 C 528.628906 220.125 527.480469 219.863281 526.328125 219.613281 L 529.734375 220.382812 C 528.585938 220.117188 527.441406 219.855469 526.292969 219.605469 L 526.328125 219.613281 C 524.03125 219.113281 521.730469 218.652344 519.425781 218.226562 C 519.402344 218.222656 519.378906 218.21875 519.359375 218.214844 C 518.242188 218.011719 517.121094 217.8125 516 217.625 L 519.359375 218.214844 C 518.183594 218 517.007812 217.792969 515.832031 217.597656 C 513.558594 217.21875 511.277344 216.875 508.996094 216.566406 C 508.972656 216.5625 508.953125 216.5625 508.933594 216.558594 L 508.996094 216.566406 C 498.539062 215.160156 488.003906 214.507812 477.46875 214.589844 Z M 44.496094 422.175781 C 24.402344 585.84375 116.957031 731.882812 251.222656 748.371094 C 297.28125 754.023438 342.265625 743.699219 382.304688 721.085938 L 334.714844 695.484375 C 334.050781 695.128906 333.414062 694.742188 332.804688 694.324219 L 332.683594 694.238281 L 331.5625 693.617188 C 329.957031 692.71875 328.351562 691.796875 326.746094 690.851562 L 325.144531 689.894531 C 205.675781 618.023438 171.632812 456.367188 248.046875 329.039062 C 289.765625 259.523438 356.195312 214.101562 427.488281 199.140625 C 397.53125 175.773438 362.476562 160.410156 323.996094 155.683594 C 189.726562 139.199219 64.589844 258.511719 44.496094 422.175781 Z M 575.820312 265.40625 C 575.445312 270.804688 594.023438 276.5 617.320312 278.128906 C 635.894531 279.425781 651.859375 277.746094 657.761719 274.277344 C 657.816406 274.242188 657.875 274.210938 657.929688 274.175781 L 657.761719 274.277344 C 657.839844 274.230469 657.921875 274.179688 658 274.132812 L 657.929688 274.175781 C 658.003906 274.128906 658.078125 274.082031 658.148438 274.035156 L 658 274.132812 C 658.183594 274.015625 658.363281 273.894531 658.527344 273.773438 C 658.558594 273.75 658.59375 273.726562 658.625 273.699219 L 658.527344 273.773438 C 658.59375 273.726562 658.660156 273.675781 658.722656 273.625 L 658.625 273.699219 C 658.691406 273.652344 658.753906 273.601562 658.816406 273.550781 L 658.722656 273.625 C 658.78125 273.578125 658.839844 273.53125 658.894531 273.484375 L 658.816406 273.550781 C 658.875 273.5 658.933594 273.449219 658.992188 273.398438 L 658.894531 273.484375 C 658.957031 273.429688 659.019531 273.375 659.082031 273.316406 L 658.992188 273.398438 C 659.046875 273.351562 659.097656 273.304688 659.148438 273.253906 L 659.082031 273.316406 C 659.132812 273.269531 659.183594 273.21875 659.234375 273.171875 L 659.148438 273.253906 C 659.207031 273.199219 659.261719 273.140625 659.316406 273.085938 L 659.234375 273.171875 C 659.28125 273.125 659.324219 273.074219 659.371094 273.027344 L 659.316406 273.085938 C 659.429688 272.964844 659.535156 272.839844 659.628906 272.710938 L 659.742188 272.554688 C 659.757812 272.523438 659.777344 272.496094 659.796875 272.46875 C 659.8125 272.441406 659.824219 272.417969 659.839844 272.390625 L 659.796875 272.46875 C 659.828125 272.414062 659.859375 272.359375 659.886719 272.304688 L 659.839844 272.390625 C 659.871094 272.339844 659.898438 272.285156 659.925781 272.230469 L 659.886719 272.304688 C 659.917969 272.25 659.945312 272.195312 659.96875 272.144531 L 659.925781 272.230469 C 659.953125 272.171875 659.980469 272.117188 660.003906 272.058594 L 659.96875 272.144531 C 659.992188 272.09375 660.011719 272.042969 660.03125 271.992188 L 660.003906 272.058594 C 660.03125 272 660.050781 271.9375 660.070312 271.878906 L 660.03125 271.992188 C 660.050781 271.933594 660.070312 271.878906 660.089844 271.820312 L 660.070312 271.878906 C 660.089844 271.824219 660.105469 271.773438 660.117188 271.71875 L 660.089844 271.820312 C 660.105469 271.761719 660.121094 271.703125 660.136719 271.644531 L 660.117188 271.71875 C 660.132812 271.65625 660.148438 271.59375 660.15625 271.527344 L 660.136719 271.644531 C 660.148438 271.589844 660.15625 271.535156 660.164062 271.476562 L 660.15625 271.527344 C 660.171875 271.453125 660.179688 271.378906 660.183594 271.304688 L 660.183594 271.296875 L 660.191406 271.140625 C 660.191406 270.984375 660.175781 270.828125 660.144531 270.671875 C 660.140625 270.65625 660.136719 270.640625 660.132812 270.621094 L 660.144531 270.671875 C 660.132812 270.621094 660.121094 270.570312 660.109375 270.519531 L 660.132812 270.621094 C 660.121094 270.5625 660.105469 270.503906 660.085938 270.445312 L 660.109375 270.519531 C 660.09375 270.464844 660.078125 270.410156 660.058594 270.355469 L 660.085938 270.445312 C 660.074219 270.394531 660.054688 270.34375 660.039062 270.292969 L 660.058594 270.355469 C 660.042969 270.308594 660.027344 270.261719 660.007812 270.214844 L 660.039062 270.292969 C 660.015625 270.234375 659.996094 270.179688 659.972656 270.121094 L 660.007812 270.214844 C 659.988281 270.164062 659.96875 270.113281 659.945312 270.058594 L 659.972656 270.121094 C 659.949219 270.074219 659.929688 270.027344 659.90625 269.980469 L 659.859375 269.886719 C 656.941406 265.480469 642.875 261.191406 624.976562 259.308594 L 624.476562 259.078125 C 622.585938 258.886719 620.652344 258.71875 618.6875 258.582031 C 595.390625 256.953125 576.199219 260.007812 575.820312 265.40625 Z M 575.820312 265.40625 "/>
</g>
</svg>
